PathFileType	4	(X/Y/Z)	C:/Users/beibeiliu/ov580/test_trc/User1\sequence.9_training_dense_left.trc
DataRate	CameraRate	NumFrames	NumMarkers	Units	OrigDataRate	OrigDataStartFrame	OrigNumFrames
120	120	20	19	mm	120	275	314
Frame#	Time	ThumbCMC			ThumbMCP			ThumbIP			ThumbTip			IndexMCP			IndexPIP			IndexTip			MiddleMCP			MiddlePIP			MiddleTip			RingMCP			RingPIP			RingTip			PinkyMCP			PinkyPIP			PinkyTip			BackHand1			BackHand2			BackHand3	
		X0	Y0	Z0	X1	Y1	Z1	X2	Y2	Z2	X3	Y3	Z3	X4	Y4	Z4	X5	Y5	Z5	X6	Y6	Z6	X7	Y7	Z7	X8	Y8	Z8	X9	Y9	Z9	X10	Y10	Z10	X11	Y11	Z11	X12	Y12	Z12	X13	Y13	Z13	X14	Y14	Z14	X15	Y15	Z15	X16	Y16	Z16	X17	Y17	Z17	X18	Y18	Z18	
274	2.28333	-205.445	129.035	2.63419	-193.769	145.226	-19.7345	-193.123	161.001	-44.9703	-186.278	170.804	-61.9656	-258.905	126.987	-67.8509	-271.443	127.867	-91.2961	-286.294	123.708	-116.334	-282.771	112.906	-64.3371	-296.543	113.463	-90.8106	-309.307	107.321	-116.863	-290.933	88.0741	-54.0861	-305.616	86.3738	-76.1173	-316.374	80.1795	-101.117	-287.272	62.5392	-32.3831	-302.26	54.625	-45.414	-322.254	52.65	-62.2738	-264.841	96.681	-5.72048	-255.787	98.5692	24.1019	-242.199	123.101	3.7022	
275	2.29167	-198.427	128.136	2.18213	-186.171	139.011	-20.0536	-183.455	153.592	-44.9652	-175.756	164.435	-65.6714	-249.529	131.781	-69.516	-262.746	133.122	-96.4673	-276.874	130.236	-117.68	-278.13	116.1	-66.9656	-291.002	119.398	-93.5782	-307.406	111.096	-118.061	-285.33	96.3585	-53.5837	-304.362	94.1087	-77.1299	-316.581	90.4315	-104.167	-285.838	71.1464	-33.7318	-302.992	64.8944	-47.128	-323.165	61.5065	-64.8127	-264.746	96.6507	-5.77774	-257.202	99.8089	25.0843	-237.014	123.905	-0.602738	
276	2.3	-194.388	119.28	5.00339	-179.452	131.229	-19.596	-174.601	142.08	-41.6184	-165.489	153.359	-62.0152	-241.215	132.272	-73.1289	-251.458	133.578	-91.5791	-264.433	132.367	-115.652	-271.13	120.972	-67.5856	-283.206	123.502	-92.4328	-299.44	121.662	-120.733	-283.827	99.1266	-53.4592	-300.217	100.95	-75.4593	-310.721	100.434	-100.629	-288.917	75.1733	-35.011	-303.705	70.897	-44.0477	-323.737	70.9969	-62.8878	-261.127	102.68	-6.0207	-252.912	102.228	24.272	-231.061	124.734	1.15805	
277	2.30833	-186.789	114.872	7.0895	-174.335	122.463	-18.4458	-165.727	134.21	-41.5035	-153.593	143.552	-59.0169	-232.625	131.058	-73.2132	-240.969	135.497	-96.2378	-253.508	137.469	-120.481	-262.613	122.775	-65.518	-274.538	127.301	-90.1656	-291.035	128.161	-122.018	-277.201	106.954	-55.4451	-294.697	107.876	-74.9094	-303.924	110.186	-103.371	-285.187	80.2643	-34.1191	-301.148	80.1283	-49.8444	-322.975	80.8341	-61.5896	-258.883	102.189	-5.63272	-248.429	103.548	25.8976	-227.215	120.883	-1.10936	
278	2.31667	-181.51	109.276	8.21686	-163.67	117.186	-16.1884	-155.016	127.797	-39.1477	-140.606	135.012	-56.534	-222.013	130.671	-72.9171	-230.892	134.252	-96.7849	-241.453	138.394	-119.786	-252.063	127.052	-67.5041	-265.427	132.609	-92.9784	-279.339	133.949	-121.224	-272.933	108.771	-54.6766	-288.351	114.335	-78.6491	-298.399	116.892	-101.309	-283.834	83.1961	-32.1853	-299.741	86.0486	-51.0237	-316.471	89.816	-63.7604	-255.105	103.212	-6.20885	-244.704	105.887	26.8509	-219.104	120.275	-1.4491	
279	2.325	-176.73	104.06	7.08457	-161.736	105.218	-15.7716	-144.699	117.699	-37.9988	-131.184	121.324	-53.8422	-214.003	127.813	-73.3132	-217.361	133.037	-96.3212	-229.855	137.722	-122.261	-246.068	128.126	-69.8528	-255.343	135.532	-94.9278	-267.779	140.242	-122.203	-266.72	114.145	-57.551	-280.169	121.927	-81.5415	-288.139	125.364	-105.514	-281	88.656	-35.4659	-295.341	91.1024	-46.0325	-315.219	96.3845	-60.5974	-246.277	108.924	-10.4071	-244.108	107.332	25.062	-213.499	119.25	2.76939	
280	2.33333	-172.495	97.0161	10.0016	-153.995	98.455	-13.3923	-143.054	105.668	-36.4292	-123.818	107.846	-49.0856	-204.416	123.396	-70.1464	-211.275	129.593	-93.855	-216.476	134.524	-118.32	-232.209	128.939	-69.6646	-241.677	136.035	-92.4093	-250.347	144.636	-124.023	-256.984	117.212	-55.4818	-267.623	128.537	-84.2093	-280.065	132.903	-106.391	-276.438	95.2636	-36.5519	-292.694	98.4502	-49.3165	-309.08	107.781	-62.6611	-242.481	110.55	-8.5496	-239.617	107.357	28.0279	-208.961	115.222	3.6222	
281	2.34167	-171.886	89.8176	9.39815	-147.6	90.6963	-11.4381	-134.971	93.3768	-30.5554	-120.663	94.8191	-49.0998	-195.202	117.799	-69.5806	-196.203	126.302	-97.1082	-202.639	130.896	-121.818	-223.027	129.25	-71.4182	-229.869	137.204	-97.4955	-239.909	144.137	-122.817	-247.454	121.491	-60.6473	-258.133	131.232	-81.775	-262.911	139.479	-108.904	-271.319	99.4743	-35.0366	-284.648	107.695	-53.6642	-302.666	119.015	-65.7704	-235.165	110.607	-10.143	-232.792	108.581	25.6653	-201.771	111.466	2.24277	
282	2.35	-164.215	84.5542	9.76781	-146.452	79.3424	-6.3174	-127.82	82.8979	-25.512	-110.965	82.1625	-45.7271	-184.293	113.288	-71.7831	-185.051	117.831	-94.7239	-191.959	124.681	-123.428	-216.708	125.789	-71.2425	-216.287	134.762	-96.0413	-225.285	142.934	-121.112	-237.085	122.367	-61.1726	-244.12	133.287	-84.136	-255.242	143.288	-108.103	-263.959	106.219	-40.2454	-279.633	113.39	-52.2047	-291.287	127.234	-65.8618	-226.862	113.378	-9.49454	-228.954	108.616	25.4355	-191.33	109.597	2.21448	
283	2.35833	-164.674	77.1472	14.0181	-142.112	72.5565	-6.89649	-125.896	72.9124	-25.3798	-107.886	69.7697	-39.6116	-177.667	105.151	-67.0296	-178.666	110.64	-91.5712	-184.268	117.492	-120.927	-205.185	121.654	-70.2893	-209.412	130.2	-93.3113	-214.716	141.171	-119.916	-232.458	120.757	-58.1085	-237.738	132.955	-82.4553	-242.482	142.285	-106.104	-259.3	107.292	-38.5752	-272.297	114.621	-48.9418	-280.462	132.087	-61.9105	-224.75	112.026	-6.00273	-217.669	107.369	26.1938	-185.491	104.823	3.05184	
284	2.36667	-163.424	70.5108	16.7066	-140.313	63.0924	-0.594743	-121.766	63.3217	-20.4285	-107.864	59.6106	-39.5034	-174.02	98.8578	-64.1534	-174.487	105.76	-95.8011	-175.053	109.874	-120.526	-198.378	116.541	-66.324	-199.156	125.414	-91.1379	-202.064	136.864	-120.027	-222.939	117.665	-59.0107	-226.918	130.068	-80.6731	-229.537	139.834	-104.739	-250.901	108.977	-40.5464	-262.002	115.865	-48.7856	-276.007	135.849	-63.0298	-215.8	108.204	-8.20223	-217.668	108.293	29.8325	-180.367	98.6412	5.42032	
285	2.375	-160.593	66.171	17.268	-135.284	56.8178	2.23603	-121.181	53.5894	-18.2244	-101.725	47.4802	-30.7476	-168.929	93.543	-67.7101	-163.482	96.7776	-94.2779	-167.107	103.01	-117.044	-192.795	114.567	-68.3661	-190.023	122.487	-94.1801	-191.84	133.557	-120.116	-217.074	115.075	-55.7768	-217.075	127.253	-81.3478	-223.21	139.412	-104.659	-244.497	108.344	-39.3769	-258.58	118.068	-49.3581	-265.105	134.783	-61.4788	-210.628	107.86	-5.02866	-211.74	106.171	25.3174	-177.866	94.9627	8.85471	
286	2.38333	-157.812	61.8349	17.1362	-135.959	48.7131	5.57593	-116.506	45.3908	-16.7169	-101.805	38.6876	-31.0089	-162.281	87.8475	-66.869	-160.113	91.3876	-90.5612	-164.06	97.7202	-113.588	-186.045	108.846	-63.3287	-184.516	117.232	-89.611	-185.61	130.121	-120.047	-206.35	114.128	-59.0304	-211.055	126.903	-81.3477	-213.369	137.603	-106.074	-240.739	107.944	-36.1004	-248.328	116.865	-48.9817	-255.961	137.025	-62.1515	-206.7	105.039	-7.42536	-202.256	103.527	27.3233	-171.947	89.9507	10.1283	
287	2.39167	-153.098	56.0689	23.2436	-133.397	43.162	4.37568	-112.077	36.0274	-12.6761	-96.9978	27.0046	-26.9602	-155.576	80.7187	-64.4696	-155.856	85.4576	-86.7231	-155.113	90.3121	-116.165	-178.549	102.883	-62.4192	-174.613	112.076	-92.5766	-176.086	121.795	-118.215	-201.346	108.57	-55.8118	-200.418	120.396	-78.4605	-201.836	131.61	-104.067	-233.215	104.755	-34.9986	-241.993	114.948	-49.7307	-245.619	132.023	-63.0902	-200.153	103.827	-6.15865	-198.943	102.543	31.8114	-166.504	85.9265	11.0334	
288	2.4	-150.083	49.1288	25.5306	-126.897	32.0974	13.0074	-109.516	24.4986	-8.16672	-97.6224	14.2408	-17.3342	-152.709	71.8116	-60.1212	-148.136	73.576	-83.9201	-148.699	79.0771	-109.758	-172.603	95.1329	-64.8808	-169.949	101.176	-89.454	-165.364	112.02	-118.401	-196.854	103.195	-53.7577	-191.427	109.987	-78.0089	-191.277	119.562	-101.327	-225.909	100.664	-34.3816	-234.751	111.644	-50.5344	-236.618	131.205	-63.5458	-193.686	97.782	-0.96293	-192.549	96.5136	31.3029	-162.814	80.8381	9.30582	
289	2.40833	-146.424	47.6427	29.5391	-126.025	30.1051	16.0038	-107.349	21.0533	-5.35418	-92.418	10.3547	-10.3916	-148.61	65.1761	-55.6861	-147.753	70.1994	-85.195	-147.654	75.7801	-108.786	-169.361	88.954	-60.6187	-166.242	96.3409	-85.9395	-162.823	108.247	-118.67	-190.231	98.1864	-56.2884	-187.569	106.901	-79.2263	-190.381	119.484	-102.283	-223.088	96.4974	-34.142	-228.906	106.006	-47.1126	-233.161	127.136	-63.8247	-191.267	93.6841	-4.16124	-189.163	98.116	31.1993	-161.478	81.1402	13.078	
290	2.41667	-144.255	48.61	29.6748	-122.993	32.2824	14.4808	-104.527	22.667	-4.14708	-90.3492	12.1598	-13.0484	-147.686	65.572	-54.6486	-145.777	71.0562	-84.6883	-144.656	74.9666	-105.821	-168.387	89.6882	-64.8379	-166.031	96.2484	-88.991	-160.287	103.861	-116.866	-191.219	96.6838	-56.9391	-189.935	106.628	-79.442	-189.658	117.014	-103.008	-223.177	95.0135	-32.8709	-234.482	107.144	-49.3461	-237.595	122.32	-61.3892	-188.01	93.7117	-0.0619365	-189.646	98.7254	30.3	-162.192	80.5214	9.64912	
291	2.425	-142.046	52.0632	27.5238	-126.299	35.0606	12.8174	-105.799	25.3637	-2.79963	-91.5952	14.8184	-6.93734	-144.562	67.4093	-59.473	-145.945	73.0575	-83.5088	-145.09	77.5363	-106.503	-167.691	89.4725	-62.3747	-167.683	95.9503	-86.9401	-162.68	102.487	-115.975	-195.095	97.113	-54.5552	-195.57	105.697	-77.2372	-192.382	115.83	-103.451	-228.187	96.7281	-36.814	-233.749	102.147	-49.2807	-240.073	119.238	-61.316	-195.257	95.1579	-3.27814	-194.256	100.484	30.7178	-160.333	83.2416	12.5966	
292	2.43333	-141.817	56.2563	26.9831	-125.333	40.3567	13.8548	-105.243	31.4986	0.398799	-87.2379	22.1103	-9.14895	-150.217	71.9414	-58.5451	-146.612	73.7228	-80.9781	-145.833	78.7909	-106.926	-173.844	91.6649	-63.2051	-166.36	96.909	-91.031	-165.824	103.432	-114.886	-195.52	97.2744	-55.9537	-196.166	107.832	-82.7387	-198.285	113.529	-102.171	-228.861	92.7971	-32.4005	-236.886	100.169	-47.7214	-241.158	115.496	-63.6044	-197.477	96.3163	-1.21323	-192.577	97.5601	27.8414	-162.233	86.1975	12.6685	
293	2.44167	-144.514	61.0966	31.3605	-122.978	45.3377	19.0838	-101.144	37.5926	-2.61543	-87.0357	29.4285	-5.00907	-149.589	72.9421	-54.7108	-146.623	76.2439	-82.8751	-144.409	79.2274	-104.868	-171.218	92.8142	-65.7016	-171.918	96.9775	-89.5892	-173.246	104.8	-117.084	-197.949	95.651	-52.5562	-198.272	103.059	-77.6447	-203.047	111.915	-102.075	-226.632	89.6522	-35.5984	-237.28	97.2077	-51.3407	-244.914	113.325	-66.0693	-199.299	97.3739	-4.76288	-195.644	101.736	26.9087	-163.21	87.3153	10.8753	
